<svg xmlns="http://www.w3.org/2000/svg" version="1.1" xmlns:xlink="http://www.w3.org/1999/xlink" width="512" height="512" x="0" y="0" viewBox="0 0 32 32" style="enable-background:new 0 0 512 512" xml:space="preserve" class=""><g><linearGradient id="a" x1="6.732" x2="23.089" y1="7.177" y2="25.597" gradientUnits="userSpaceOnUse"><stop offset="0" stop-color="#3e4154"></stop><stop offset="1" stop-color="#1b2129"></stop></linearGradient><linearGradient id="b" x1="8.293" x2="11.707" y1="12.293" y2="15.707" gradientUnits="userSpaceOnUse"><stop offset="0" stop-color="#fff"></stop><stop offset="1" stop-color="#dadfe0"></stop></linearGradient><linearGradient id="c" x1="21.293" x2="22.707" y1="11.293" y2="12.707" gradientUnits="userSpaceOnUse"><stop offset="0" stop-color="#fed200"></stop><stop offset="1" stop-color="#f59815"></stop></linearGradient><linearGradient id="d" x1="21.293" x2="22.707" y1="15.293" y2="16.707" gradientUnits="userSpaceOnUse"><stop offset="0" stop-color="#4aff9e"></stop><stop offset="1" stop-color="#35b97d"></stop></linearGradient><linearGradient id="e" x1="23.293" x2="24.707" y1="13.293" y2="14.707" gradientUnits="userSpaceOnUse"><stop offset="0" stop-color="#e85155"></stop><stop offset="1" stop-color="#c21d2c"></stop></linearGradient><linearGradient id="f" x1="19.293" x2="20.707" y1="13.293" y2="14.707" gradientUnits="userSpaceOnUse"><stop offset="0" stop-color="#6fc6fc"></stop><stop offset="1" stop-color="#50a7f6"></stop></linearGradient><path fill="url(#a)" d="M25.546 26a4.458 4.458 0 0 1-3.804-2.153L20.034 21h-8.069l-1.708 2.847A4.455 4.455 0 0 1 6.454 26a4.426 4.426 0 0 1-3.384-1.568 4.425 4.425 0 0 1-.991-3.596l1.498-8.987A6.978 6.978 0 0 1 10.482 6h11.037c3.436 0 6.34 2.46 6.905 5.849l1.498 8.987a4.425 4.425 0 0 1-.991 3.596A4.426 4.426 0 0 1 25.547 26z" opacity="1" data-original="url(#a)"></path><path fill="url(#b)" d="M12 13h-1v-1a1 1 0 0 0-2 0v1H8a1 1 0 0 0 0 2h1v1a1 1 0 0 0 2 0v-1h1a1 1 0 0 0 0-2z" opacity="1" data-original="url(#b)"></path><circle cx="22" cy="12" r="1" fill="url(#c)" opacity="1" data-original="url(#c)"></circle><circle cx="22" cy="16" r="1" fill="url(#d)" opacity="1" data-original="url(#d)"></circle><circle cx="24" cy="14" r="1" fill="url(#e)" opacity="1" data-original="url(#e)"></circle><circle cx="20" cy="14" r="1" fill="url(#f)" opacity="1" data-original="url(#f)"></circle></g></svg>