<svg xmlns="http://www.w3.org/2000/svg" version="1.1" xmlns:xlink="http://www.w3.org/1999/xlink" width="512" height="512" x="0" y="0" viewBox="0 0 32 32" style="enable-background:new 0 0 512 512" xml:space="preserve" class=""><g><path fill="#2b3344" d="M23.2 11.42H8.8a1 1 0 0 0-.72.3 1 1 0 0 0-.28.73l.4 12.12a4 4 0 0 0 4 3.85h7.6a4 4 0 0 0 4-3.86l.4-12.11a1 1 0 0 0-.28-.73 1 1 0 0 0-.72-.3zm-8.61 12.22a1 1 0 0 1-2 0v-8.52a1 1 0 0 1 2 0zm4.82 0a1 1 0 0 1-2 0v-8.52a1 1 0 0 1 2 0zm5.11-16.22h-3.1a1.27 1.27 0 0 1-1.27-1.15 3 3 0 0 0-3-2.69h-2.32a3 3 0 0 0-3 2.69 1.27 1.27 0 0 1-1.27 1.15H7.48a1 1 0 0 0 0 2h17a1 1 0 0 0 0-2zm-10.68-.94a1 1 0 0 1 1-.9h2.34a1 1 0 0 1 1 .9 3.26 3.26 0 0 0 .25.94h-4.84a3.26 3.26 0 0 0 .25-.94z" opacity="1" data-original="#2b3344" class=""></path></g></svg>